<svg width="28" height="28" viewBox="0 0 28 28" fill="none" xmlns="http://www.w3.org/2000/svg">
<path d="M14 25.6667C17.2216 25.6667 20.1383 24.3608 22.2496 22.2496C24.3608 20.1383 25.6667 17.2216 25.6667 14C25.6667 10.7784 24.3608 7.86171 22.2496 5.75043C20.1383 3.63918 17.2216 2.33334 14 2.33334C10.7784 2.33334 7.86171 3.63918 5.75043 5.75043C3.63918 7.86171 2.33334 10.7784 2.33334 14C2.33334 17.2216 3.63918 20.1383 5.75043 22.2496C7.86171 24.3608 10.7784 25.6667 14 25.6667Z" fill="#F5F5F5" stroke="#EB5757" stroke-width="2" stroke-linejoin="round"/>
<path d="M14 14.4998L17.8891 18L19 17.0002L15.1109 13.5L19 9.99984L17.8891 9L14 12.5002L10.1109 9L9 9.99984L12.8891 13.5L9 17.0002L10.1109 18L14 14.4998Z" fill="#EB5757"/>
</svg>
