<svg width="1032" height="777" viewBox="0 0 1032 777" fill="none" xmlns="http://www.w3.org/2000/svg">
<path opacity="0.3" d="M268.888 139.223C181.4 171.336 130.393 204.609 117.596 303.14C106.812 386.181 113.133 550.87 264.785 577.107C559.886 627.957 812.158 610.612 887.262 480.097C957.077 358.964 950.137 214.017 793.221 151.053C675.186 103.682 439.735 76.4659 268.888 139.223Z" fill="#E6E6E6" stroke="url(#paint0_linear_886_144)" stroke-width="5"/>
<path d="M530.809 208.527C530.809 208.527 524.849 231.13 507.047 241.826C507.047 241.826 525.288 239.016 540.871 261.387C540.871 261.387 545.644 241.207 560.402 228.037C560.402 228.037 538.291 227.805 530.809 208.527Z" fill="url(#paint1_linear_886_144)"/>
<path d="M322.036 171.749C322.036 171.749 303.408 185.873 282.768 183.373C282.768 183.373 298.867 192.367 297.371 219.455C297.371 219.455 313.573 206.568 333.336 205.202C333.336 205.331 316.024 191.517 322.036 171.749Z" fill="url(#paint2_linear_886_144)"/>
<path d="M757.695 209.3C757.695 209.3 743.247 220.253 727.276 218.295C727.276 218.295 739.764 225.279 738.603 246.362C746.707 240.224 756.33 236.402 766.441 235.305C766.441 235.305 753.051 224.609 757.695 209.3Z" fill="url(#paint3_linear_886_144)"/>
<g opacity="0.45" filter="url(#filter0_d_886_144)">
<path d="M516 674.426C748.685 674.426 937.314 650.759 937.314 621.565C937.314 592.371 748.685 568.705 516 568.705C283.315 568.705 94.686 592.371 94.686 621.565C94.686 650.759 283.315 674.426 516 674.426Z" fill="#E6E6E6"/>
<path d="M516 674.426C748.685 674.426 937.314 650.759 937.314 621.565C937.314 592.371 748.685 568.705 516 568.705C283.315 568.705 94.686 592.371 94.686 621.565C94.686 650.759 283.315 674.426 516 674.426Z" stroke="url(#paint4_linear_886_144)" stroke-width="5"/>
</g>
<path d="M623.431 513.37V544.813C623.431 559.066 583.648 570.586 534.628 570.458C485.608 570.329 445.901 558.757 445.927 544.53V513.087L623.431 513.37Z" fill="#FFD200"/>
<path d="M623.354 551.257V582.7C623.354 596.952 583.57 608.473 534.55 608.473C485.53 608.473 445.824 596.772 445.85 582.519V551.102L623.354 551.257Z" fill="#FFD200"/>
<path opacity="0.08" d="M623.354 551.257V582.7C623.354 596.952 583.57 608.473 534.55 608.473C485.53 608.473 445.824 596.772 445.85 582.519V551.102L623.354 551.257Z" fill="black"/>
<path d="M621.679 550.254C621.703 536.134 582.357 524.619 533.797 524.534C485.237 524.45 445.851 535.828 445.826 549.948C445.801 564.068 485.147 575.583 533.708 575.668C582.268 575.753 621.654 564.375 621.679 550.254Z" fill="#FFD200"/>
<path opacity="0.08" d="M623.431 513.37V544.813C623.431 559.066 583.648 570.586 534.628 570.458C485.608 570.329 445.901 558.757 445.927 544.53V513.087L623.431 513.37Z" fill="black"/>
<path d="M617.033 475.819V507.236C617.033 521.489 577.249 533.009 528.229 533.009C479.209 533.009 439.503 521.308 439.529 507.082V475.639L617.033 475.819Z" fill="#FFD200"/>
<path d="M623.56 437.933V469.376C623.56 483.628 583.776 495.149 534.756 495.149C485.736 495.149 446.03 483.448 446.03 469.195V437.778L623.56 437.933Z" fill="#FFD200"/>
<path d="M621.756 512.715C621.781 498.595 582.435 487.079 533.875 486.995C485.314 486.91 445.928 498.288 445.904 512.408C445.879 526.528 485.225 538.044 533.785 538.128C582.346 538.213 621.732 526.835 621.756 512.715Z" fill="#FFD200"/>
<path opacity="0.08" d="M617.033 475.819V507.236C617.033 521.489 577.249 533.009 528.229 533.009C479.209 533.009 439.503 521.308 439.529 507.082V475.639L617.033 475.819Z" fill="black"/>
<path d="M615.424 475.511C615.449 461.391 576.103 449.875 527.543 449.791C478.982 449.706 439.596 461.084 439.572 475.204C439.547 489.324 478.893 500.84 527.453 500.924C576.014 501.009 615.399 489.631 615.424 475.511Z" fill="#FFD200"/>
<path opacity="0.08" d="M623.56 437.933V469.376C623.56 483.628 583.776 495.149 534.756 495.149C485.736 495.149 446.03 483.448 446.03 469.195V437.778L623.56 437.933Z" fill="black"/>
<path d="M623.564 437.973C623.588 423.852 583.861 412.337 534.831 412.251C485.8 412.166 446.033 423.543 446.009 437.663C445.984 451.783 485.711 463.299 534.741 463.385C583.772 463.47 623.539 452.093 623.564 437.973Z" fill="#FFD200"/>
<path d="M468.038 397.882V429.325C468.038 443.577 507.796 455.098 556.816 454.969C605.836 454.84 645.568 443.268 645.542 429.015V397.598L468.038 397.882Z" fill="#FFD200"/>
<path d="M461.51 360.15V391.593C461.51 405.82 501.294 417.366 550.314 417.211C599.334 417.057 639.04 405.536 639.014 391.284V359.841L461.51 360.15Z" fill="#FFD200"/>
<path opacity="0.08" d="M468.038 397.882V429.325C468.038 443.577 507.796 455.098 556.816 454.969C605.836 454.84 645.568 443.268 645.542 429.015V397.598L468.038 397.882Z" fill="black"/>
<path d="M557.654 422.913C606.214 422.829 645.56 411.313 645.535 397.193C645.511 383.073 606.125 371.695 557.564 371.78C509.004 371.864 469.658 383.38 469.683 397.5C469.708 411.62 509.093 422.998 557.654 422.913Z" fill="#FFD200"/>
<path opacity="0.08" d="M461.51 360.15V391.593C461.51 405.82 501.294 417.366 550.314 417.211C599.334 417.057 639.04 405.536 639.014 391.284V359.841L461.51 360.15Z" fill="black"/>
<path d="M550.364 385.401C599.395 385.315 639.122 373.799 639.097 359.679C639.072 345.559 599.305 334.182 550.275 334.267C501.244 334.353 461.517 345.869 461.542 359.989C461.566 374.109 501.333 385.486 550.364 385.401Z" fill="#FFD200"/>
<path d="M842.396 521.772V553.19C842.396 567.442 802.612 578.963 753.592 578.834C704.572 578.705 664.866 567.159 664.892 552.906V521.463L842.396 521.772Z" fill="#FFD200"/>
<path d="M842.318 559.659V591.076C842.318 605.329 802.535 616.849 753.541 616.849C704.546 616.849 664.789 605.148 664.814 590.921V559.478L842.318 559.659Z" fill="#FFD200"/>
<path opacity="0.08" d="M842.318 559.659V591.076C842.318 605.329 802.535 616.849 753.541 616.849C704.546 616.849 664.789 605.148 664.814 590.921V559.478L842.318 559.659Z" fill="black"/>
<path d="M840.664 558.645C840.689 544.525 801.343 533.01 752.782 532.925C704.222 532.841 664.836 544.219 664.812 558.339C664.787 572.459 704.133 583.974 752.693 584.059C801.253 584.144 840.639 572.766 840.664 558.645Z" fill="#FFD200"/>
<path opacity="0.08" d="M842.396 521.772V553.19C842.396 567.442 802.612 578.963 753.592 578.834C704.572 578.705 664.866 567.159 664.892 552.906V521.463L842.396 521.772Z" fill="black"/>
<path d="M835.92 484.195V515.639C835.92 529.865 796.136 541.412 747.116 541.283C698.096 541.154 658.39 529.582 658.416 515.329V483.886L835.92 484.195Z" fill="#FFD200"/>
<path d="M842.525 446.335V477.752C842.525 492.005 802.741 503.525 753.721 503.525C704.701 503.525 664.995 491.824 665.021 477.597V446.154L842.525 446.335Z" fill="#FFD200"/>
<path d="M840.742 521.106C840.767 506.986 801.421 495.47 752.86 495.386C704.3 495.301 664.914 506.679 664.889 520.799C664.865 534.919 704.211 546.435 752.771 546.519C801.331 546.604 840.717 535.226 840.742 521.106Z" fill="#FFD200"/>
<path opacity="0.08" d="M835.92 484.195V515.639C835.92 529.865 796.136 541.412 747.116 541.283C698.096 541.154 658.39 529.582 658.416 515.329V483.886L835.92 484.195Z" fill="black"/>
<path d="M834.41 483.876C834.434 469.756 795.088 458.241 746.528 458.156C697.968 458.071 658.582 469.449 658.557 483.57C658.532 497.69 697.878 509.205 746.439 509.29C794.999 509.374 834.385 497.996 834.41 483.876Z" fill="#FFD200"/>
<path opacity="0.08" d="M842.525 446.335V477.752C842.525 492.005 802.741 503.525 753.721 503.525C704.701 503.525 664.995 491.824 665.021 477.597V446.154L842.525 446.335Z" fill="black"/>
<path opacity="0.08" d="M795.182 490.896C795.182 490.896 726.218 511.927 737.287 616.282C737.287 616.282 782.256 617.777 803.593 612.313C822.685 607.416 795.182 490.896 795.182 490.896Z" fill="black"/>
<path d="M842.575 446.338C842.6 432.218 802.873 420.702 753.842 420.617C704.812 420.531 665.045 431.909 665.02 446.029C664.995 460.149 704.722 471.665 753.753 471.75C802.784 471.836 842.551 460.458 842.575 446.338Z" fill="#FFD200"/>
<path d="M444.973 507.468H159.857L184.006 479.865H420.824L444.973 507.468Z" fill="url(#paint5_linear_886_144)"/>
<path opacity="0.44" d="M444.973 507.468H159.857L184.006 479.865H420.824L444.973 507.468Z" fill="url(#paint6_linear_886_144)"/>
<path d="M444.947 507.468H159.857V602.21H444.947V507.468Z" fill="url(#paint7_linear_886_144)"/>
<path d="M323.455 479.865H281.375L266.643 507.468H338.186L323.455 479.865Z" fill="#F2F2F2"/>
<path opacity="0.08" d="M444.947 525.458H159.857V529.788H444.947V525.458Z" fill="black"/>
<path opacity="0.08" d="M444.947 544.942H159.857V549.272H444.947V544.942Z" fill="black"/>
<path opacity="0.08" d="M444.947 564.453H159.857V568.782H444.947V564.453Z" fill="black"/>
<path opacity="0.08" d="M444.947 583.937H159.857V588.267H444.947V583.937Z" fill="black"/>
<path d="M338.161 507.468H266.643V602.21H338.161V507.468Z" fill="#E6E6E6"/>
<path d="M402.686 404.66H117.596L141.745 377.057H378.563L402.686 404.66Z" fill="url(#paint8_linear_886_144)"/>
<path opacity="0.44" d="M402.686 404.66H117.596L141.745 377.057H378.563L402.686 404.66Z" fill="url(#paint9_linear_886_144)"/>
<path d="M402.686 404.66H117.596V499.401H402.686V404.66Z" fill="url(#paint10_linear_886_144)"/>
<path d="M281.194 377.057H239.089L224.383 404.66H295.9L281.194 377.057Z" fill="#F2F2F2"/>
<path opacity="0.08" d="M402.686 422.649H117.596V426.979H402.686V422.649Z" fill="black"/>
<path opacity="0.08" d="M402.686 442.134H117.596V446.464H402.686V442.134Z" fill="black"/>
<path opacity="0.08" d="M402.686 461.644H117.596V465.974H402.686V461.644Z" fill="black"/>
<path opacity="0.08" d="M402.686 481.128H117.596V485.458H402.686V481.128Z" fill="black"/>
<path d="M295.9 404.66H224.383V499.401H295.9V404.66Z" fill="#E6E6E6"/>
<path d="M444.973 301.851H159.857L184.006 274.248H420.824L444.973 301.851Z" fill="url(#paint11_linear_886_144)"/>
<path opacity="0.44" d="M444.973 301.851H159.857L184.006 274.248H420.824L444.973 301.851Z" fill="url(#paint12_linear_886_144)"/>
<path d="M444.947 301.851H159.857V396.593H444.947V301.851Z" fill="url(#paint13_linear_886_144)"/>
<path d="M323.455 274.248H281.375L266.643 301.851H338.186L323.455 274.248Z" fill="#F2F2F2"/>
<path opacity="0.08" d="M444.947 319.841H159.857V324.171H444.947V319.841Z" fill="black"/>
<path opacity="0.08" d="M444.947 339.351H159.857V343.681H444.947V339.351Z" fill="black"/>
<path opacity="0.08" d="M444.947 358.835H159.857V363.165H444.947V358.835Z" fill="black"/>
<path opacity="0.08" d="M444.947 378.32H159.857V382.649H444.947V378.32Z" fill="black"/>
<path d="M338.161 301.851H266.643V396.593H338.161V301.851Z" fill="#E6E6E6"/>
<path opacity="0.08" d="M289.502 634.014C325.894 634.014 355.395 604.543 355.395 568.19C355.395 531.836 325.894 502.365 289.502 502.365C253.11 502.365 223.609 531.836 223.609 568.19C223.609 604.543 253.11 634.014 289.502 634.014Z" fill="black"/>
<path d="M289.502 634.014C325.894 634.014 355.395 604.543 355.395 568.19C355.395 531.836 325.894 502.365 289.502 502.365C253.11 502.365 223.609 531.836 223.609 568.19C223.609 604.543 253.11 634.014 289.502 634.014Z" fill="#FFD200"/>
<g opacity="0.08">
<path opacity="0.08" d="M289.218 613.937C325.61 613.937 355.111 584.466 355.111 548.112C355.111 511.759 325.61 482.288 289.218 482.288C252.826 482.288 223.325 511.759 223.325 548.112C223.325 584.466 252.826 613.937 289.218 613.937Z" fill="black"/>
</g>
<path opacity="0.08" d="M289.502 634.014C325.894 634.014 355.395 604.543 355.395 568.19C355.395 531.836 325.894 502.365 289.502 502.365C253.11 502.365 223.609 531.836 223.609 568.19C223.609 604.543 253.11 634.014 289.502 634.014Z" fill="black"/>
<path d="M289.218 613.937C325.61 613.937 355.111 584.466 355.111 548.112C355.111 511.759 325.61 482.288 289.218 482.288C252.826 482.288 223.325 511.759 223.325 548.112C223.325 584.466 252.826 613.937 289.218 613.937Z" fill="#FFD200"/>
<path d="M286.199 518.757C288.031 518.448 288.779 518.963 289.012 520.819L289.708 524.711C292.995 524.477 296.283 525.146 299.216 526.645C302.149 528.144 304.616 530.417 306.349 533.216C307.639 534.943 307.433 536.051 305.446 537.391L301.834 539.839C300.157 541.025 299.254 540.793 297.835 539.066C296.671 537.224 294.941 535.807 292.905 535.026C290.868 534.246 288.634 534.144 286.535 534.736C279.749 535.922 277.015 538.474 277.814 543.01C278.216 544.371 279.079 545.551 280.256 546.345C281.433 547.14 282.85 547.501 284.264 547.365C286.223 547.497 288.188 547.497 290.147 547.365C293.801 546.901 297.503 546.971 301.138 547.571C302.95 547.823 304.699 548.409 306.298 549.298C307.957 550.526 309.358 552.068 310.421 553.837C311.483 555.606 312.186 557.567 312.49 559.607C314.012 568.293 309.239 575.2 299.228 578.551L299.951 582.674C300.286 584.504 299.822 585.252 297.99 585.587L293.604 586.36C291.772 586.669 291.024 586.154 290.689 584.324L289.966 580.252C286.358 580.623 282.721 579.924 279.509 578.242C276.297 576.559 273.652 573.968 271.906 570.793C271.659 570.47 271.492 570.094 271.418 569.694C271.344 569.295 271.366 568.883 271.482 568.494C271.598 568.104 271.804 567.748 272.084 567.453C272.364 567.158 272.71 566.934 273.093 566.798L276.757 564.685C278.614 563.602 279.569 563.937 280.807 565.767C281.993 567.768 283.806 569.322 285.966 570.188C288.125 571.055 290.511 571.186 292.753 570.561C300.106 569.272 303.356 566.308 302.531 561.618C302.397 560.517 301.902 559.492 301.122 558.704C300.342 557.915 299.322 557.408 298.222 557.262C295.519 556.864 292.772 556.864 290.069 557.262C286.362 557.691 282.611 557.543 278.95 556.824C277.136 556.533 275.389 555.922 273.79 555.02C272.115 553.858 270.698 552.364 269.628 550.629C268.558 548.895 267.858 546.959 267.572 544.943C266.05 536.334 270.461 529.633 280.472 526.463L279.801 522.572C279.466 520.742 279.982 519.994 281.839 519.659L286.199 518.757Z" fill="white"/>
<path d="M831.741 374.737V404.505C831.741 417.984 794.073 428.861 747.658 428.783C701.244 428.706 663.602 417.701 663.628 404.222V374.454L831.741 374.737Z" fill="#FFD200"/>
<path d="M831.689 410.613V440.381C831.689 453.86 794.021 464.737 747.581 464.659C701.141 464.582 663.55 453.577 663.576 440.098V410.33L831.689 410.613Z" fill="#FFD200"/>
<path opacity="0.08" d="M831.689 410.613V440.381C831.689 453.86 794.021 464.737 747.581 464.659C701.141 464.582 663.55 453.577 663.576 440.098V410.33L831.689 410.613Z" fill="black"/>
<path d="M830.128 409.641C830.151 396.275 792.883 385.375 746.888 385.295C700.892 385.215 663.586 395.985 663.563 409.351C663.54 422.716 700.807 433.617 746.803 433.697C792.799 433.777 830.104 423.007 830.128 409.641Z" fill="#FFD200"/>
<path opacity="0.08" d="M831.741 374.737V404.505C831.741 417.984 794.073 428.861 747.658 428.783C701.244 428.706 663.602 417.701 663.628 404.222V374.454L831.741 374.737Z" fill="black"/>
<path d="M825.6 339.145V368.913C825.6 382.418 787.906 393.268 741.492 393.191C695.078 393.114 657.462 382.134 657.487 368.629V338.861L825.6 339.145Z" fill="#FFD200"/>
<path d="M831.869 303.268V333.062C831.869 346.541 794.201 357.418 747.761 357.34C701.321 357.263 663.731 346.258 663.757 332.779V303.011L831.869 303.268Z" fill="#FFD200"/>
<path d="M830.205 374.09C830.228 360.724 792.961 349.824 746.965 349.744C700.97 349.663 663.664 360.433 663.641 373.799C663.617 387.165 700.885 398.065 746.881 398.145C792.876 398.225 830.182 387.455 830.205 374.09Z" fill="#FFD200"/>
<path opacity="0.08" d="M825.6 339.145V368.913C825.6 382.418 787.906 393.268 741.492 393.191C695.078 393.114 657.462 382.134 657.487 368.629V338.861L825.6 339.145Z" fill="black"/>
<path d="M824.209 338.822C824.232 325.456 786.965 314.556 740.969 314.476C694.974 314.396 657.668 325.166 657.645 338.532C657.621 351.897 694.889 362.797 740.885 362.878C786.88 362.958 824.186 352.188 824.209 338.822Z" fill="#FFD200"/>
<path opacity="0.08" d="M831.869 303.268V333.062C831.869 346.541 794.201 357.418 747.761 357.34C701.321 357.263 663.731 346.258 663.757 332.779V303.011L831.869 303.268Z" fill="black"/>
<path d="M831.91 303.298C831.933 289.932 794.307 279.031 747.87 278.95C701.433 278.869 663.769 289.639 663.746 303.005C663.722 316.37 701.348 327.271 747.785 327.352C794.223 327.433 831.886 316.664 831.91 303.298Z" fill="#FFD200"/>
<path d="M739.763 530.071H454.648L478.796 502.468H715.615L739.763 530.071Z" fill="url(#paint14_linear_886_144)"/>
<path opacity="0.44" d="M739.763 530.071H454.648L478.796 502.468H715.615L739.763 530.071Z" fill="url(#paint15_linear_886_144)"/>
<path d="M739.738 530.071H454.648V624.813H739.738V530.071Z" fill="url(#paint16_linear_886_144)"/>
<path d="M618.245 502.468H576.14L561.434 530.071H632.977L618.245 502.468Z" fill="#F2F2F2"/>
<path opacity="0.08" d="M739.738 548.061H454.648V552.391H739.738V548.061Z" fill="black"/>
<path opacity="0.08" d="M739.738 567.545H454.648V571.875H739.738V567.545Z" fill="black"/>
<path opacity="0.08" d="M739.738 587.03H454.648V591.36H739.738V587.03Z" fill="black"/>
<path opacity="0.08" d="M739.738 606.54H454.648V610.87H739.738V606.54Z" fill="black"/>
<path d="M632.951 530.071H561.434V624.813H632.951V530.071Z" fill="#E6E6E6"/>
<path d="M913.32 576.669L664.866 436.953L699.49 424.737L905.838 540.793L913.32 576.669Z" fill="url(#paint17_linear_886_144)"/>
<path opacity="0.44" d="M913.32 576.669L664.866 436.953L699.49 424.737L905.838 540.793L913.32 576.669Z" fill="url(#paint18_linear_886_144)"/>
<path d="M913.286 576.664L664.862 436.945L618.334 519.502L866.757 659.221L913.286 576.664Z" fill="url(#paint19_linear_886_144)"/>
<path d="M820.982 493.061L784.32 472.443L757.927 489.273L820.259 524.35L820.982 493.061Z" fill="#F2F2F2"/>
<path opacity="0.08" d="M904.468 592.357L656.044 452.638L653.918 456.411L902.341 596.13L904.468 592.357Z" fill="black"/>
<path opacity="0.08" d="M894.881 609.347L646.457 469.628L644.331 473.401L892.754 613.12L894.881 609.347Z" fill="black"/>
<path opacity="0.08" d="M885.319 626.312L636.896 486.593L634.77 490.366L883.193 630.085L885.319 626.312Z" fill="black"/>
<path opacity="0.08" d="M875.733 643.302L627.309 503.583L625.183 507.356L873.606 647.075L875.733 643.302Z" fill="black"/>
<path d="M820.233 524.33L757.914 489.28L711.385 571.837L773.705 606.886L820.233 524.33Z" fill="#E6E6E6"/>
<defs>
<filter id="filter0_d_886_144" x="72.186" y="566.205" width="887.628" height="150.721" filterUnits="userSpaceOnUse" color-interpolation-filters="sRGB">
<feFlood flood-opacity="0" result="BackgroundImageFix"/>
<feColorMatrix in="SourceAlpha" type="matrix" values="0 0 0 0 0 0 0 0 0 0 0 0 0 0 0 0 0 0 127 0" result="hardAlpha"/>
<feOffset dy="20"/>
<feGaussianBlur stdDeviation="10"/>
<feComposite in2="hardAlpha" operator="out"/>
<feColorMatrix type="matrix" values="0 0 0 0 0 0 0 0 0 0 0 0 0 0 0 0 0 0 0.25 0"/>
<feBlend mode="normal" in2="BackgroundImageFix" result="effect1_dropShadow_886_144"/>
<feBlend mode="normal" in="SourceGraphic" in2="effect1_dropShadow_886_144" result="shape"/>
</filter>
<linearGradient id="paint0_linear_886_144" x1="479.708" y1="102.587" x2="971.765" y2="102.587" gradientUnits="userSpaceOnUse">
<stop stop-color="#EE0979"/>
<stop offset="1" stop-color="#FF6A00"/>
</linearGradient>
<linearGradient id="paint1_linear_886_144" x1="530.965" y1="208.527" x2="563.161" y2="208.527" gradientUnits="userSpaceOnUse">
<stop stop-color="#EE0979"/>
<stop offset="1" stop-color="#FF6A00"/>
</linearGradient>
<linearGradient id="paint2_linear_886_144" x1="305.436" y1="171.749" x2="335.952" y2="171.749" gradientUnits="userSpaceOnUse">
<stop stop-color="#EE0979"/>
<stop offset="1" stop-color="#FF6A00"/>
</linearGradient>
<linearGradient id="paint3_linear_886_144" x1="744.833" y1="209.3" x2="768.466" y2="209.3" gradientUnits="userSpaceOnUse">
<stop stop-color="#EE0979"/>
<stop offset="1" stop-color="#FF6A00"/>
</linearGradient>
<linearGradient id="paint4_linear_886_144" x1="472.416" y1="568.705" x2="980.898" y2="568.705" gradientUnits="userSpaceOnUse">
<stop stop-color="#EE0979"/>
<stop offset="1" stop-color="#FF6A00"/>
</linearGradient>
<linearGradient id="paint5_linear_886_144" x1="287.667" y1="479.865" x2="459.72" y2="479.865" gradientUnits="userSpaceOnUse">
<stop stop-color="#EE0979"/>
<stop offset="1" stop-color="#FF6A00"/>
</linearGradient>
<linearGradient id="paint6_linear_886_144" x1="287.667" y1="479.865" x2="459.72" y2="479.865" gradientUnits="userSpaceOnUse">
<stop stop-color="#EE0979"/>
<stop offset="1" stop-color="#FF6A00"/>
</linearGradient>
<linearGradient id="paint7_linear_886_144" x1="287.656" y1="507.468" x2="459.693" y2="507.468" gradientUnits="userSpaceOnUse">
<stop stop-color="#EE0979"/>
<stop offset="1" stop-color="#FF6A00"/>
</linearGradient>
<linearGradient id="paint8_linear_886_144" x1="245.395" y1="377.057" x2="417.432" y2="377.057" gradientUnits="userSpaceOnUse">
<stop stop-color="#EE0979"/>
<stop offset="1" stop-color="#FF6A00"/>
</linearGradient>
<linearGradient id="paint9_linear_886_144" x1="245.395" y1="377.057" x2="417.432" y2="377.057" gradientUnits="userSpaceOnUse">
<stop stop-color="#EE0979"/>
<stop offset="1" stop-color="#FF6A00"/>
</linearGradient>
<linearGradient id="paint10_linear_886_144" x1="245.395" y1="404.66" x2="417.432" y2="404.66" gradientUnits="userSpaceOnUse">
<stop stop-color="#EE0979"/>
<stop offset="1" stop-color="#FF6A00"/>
</linearGradient>
<linearGradient id="paint11_linear_886_144" x1="287.667" y1="274.248" x2="459.72" y2="274.248" gradientUnits="userSpaceOnUse">
<stop stop-color="#EE0979"/>
<stop offset="1" stop-color="#FF6A00"/>
</linearGradient>
<linearGradient id="paint12_linear_886_144" x1="287.667" y1="274.248" x2="459.72" y2="274.248" gradientUnits="userSpaceOnUse">
<stop stop-color="#EE0979"/>
<stop offset="1" stop-color="#FF6A00"/>
</linearGradient>
<linearGradient id="paint13_linear_886_144" x1="287.656" y1="301.851" x2="459.693" y2="301.851" gradientUnits="userSpaceOnUse">
<stop stop-color="#EE0979"/>
<stop offset="1" stop-color="#FF6A00"/>
</linearGradient>
<linearGradient id="paint14_linear_886_144" x1="582.458" y1="502.468" x2="754.511" y2="502.468" gradientUnits="userSpaceOnUse">
<stop stop-color="#EE0979"/>
<stop offset="1" stop-color="#FF6A00"/>
</linearGradient>
<linearGradient id="paint15_linear_886_144" x1="582.458" y1="502.468" x2="754.511" y2="502.468" gradientUnits="userSpaceOnUse">
<stop stop-color="#EE0979"/>
<stop offset="1" stop-color="#FF6A00"/>
</linearGradient>
<linearGradient id="paint16_linear_886_144" x1="582.447" y1="530.071" x2="754.484" y2="530.071" gradientUnits="userSpaceOnUse">
<stop stop-color="#EE0979"/>
<stop offset="1" stop-color="#FF6A00"/>
</linearGradient>
<linearGradient id="paint17_linear_886_144" x1="776.242" y1="424.737" x2="926.171" y2="424.737" gradientUnits="userSpaceOnUse">
<stop stop-color="#EE0979"/>
<stop offset="1" stop-color="#FF6A00"/>
</linearGradient>
<linearGradient id="paint18_linear_886_144" x1="776.242" y1="424.737" x2="926.171" y2="424.737" gradientUnits="userSpaceOnUse">
<stop stop-color="#EE0979"/>
<stop offset="1" stop-color="#FF6A00"/>
</linearGradient>
<linearGradient id="paint19_linear_886_144" x1="776.225" y1="499.578" x2="926.06" y2="584.025" gradientUnits="userSpaceOnUse">
<stop stop-color="#EE0979"/>
<stop offset="1" stop-color="#FF6A00"/>
</linearGradient>
</defs>
</svg>
