<svg width="439" height="500" viewBox="0 0 439 500" fill="none" xmlns="http://www.w3.org/2000/svg">
<path fill-rule="evenodd" clip-rule="evenodd" d="M136.25 61.9081C129.371 53.8376 124.715 43.9471 125.493 32.8646C127.735 0.932548 172.21 7.95718 180.862 24.0737C189.513 40.1903 188.485 81.0712 177.304 83.9517C172.845 85.1004 163.346 82.2865 153.678 76.4625L159.746 119.369H123.915L136.25 61.9081Z" fill="#915B3C"/>
<path fill-rule="evenodd" clip-rule="evenodd" d="M133.497 69.0962C129 49.1003 116.189 35.4697 118.145 26.5324C119.45 20.5742 122.926 16.8689 128.575 15.4168C131.497 3.60421 140.92 -1.42012 156.843 0.343748C180.729 2.98956 195.308 12.9035 189.012 34.7184C183.225 34.7184 176.238 32.6266 166.577 36.2105C163.512 37.3477 161.32 40.8741 160 46.7898H155.634C151.397 39.7695 147.219 37.1897 143.101 39.0505C138.982 40.9112 138.046 45.431 140.292 52.6099L138.142 69.0962H133.497Z" fill="#191847"/>
<path fill-rule="evenodd" clip-rule="evenodd" d="M23.8873 305.884H195.577C208.77 305.884 219.464 316.573 219.464 329.758V467.033C219.464 480.218 208.77 490.907 195.577 490.907H23.8873C10.6947 490.907 0 480.218 0 467.033V329.758C0 316.573 10.6947 305.884 23.8873 305.884ZM47.7746 347.663C44.4764 347.663 41.8028 350.335 41.8028 353.632V443.159C41.8028 446.455 44.4764 449.127 47.7746 449.127H171.69C174.988 449.127 177.662 446.455 177.662 443.159V353.632C177.662 350.335 174.988 347.663 171.69 347.663H47.7746Z" fill="url(#paint0_linear_113_28)"/>
<path fill-rule="evenodd" clip-rule="evenodd" d="M367.504 483.446C338.069 447.522 318.153 420.89 307.755 403.549C289.952 373.857 275.38 347.437 270.782 337.344C259.816 313.278 296.026 302.008 304.221 313.234C316.625 330.224 343.114 383.687 383.69 473.624L367.504 483.446Z" fill="#B28B67"/>
<path fill-rule="evenodd" clip-rule="evenodd" d="M307.187 473.001L252.407 335.184C240.69 310.061 297.271 293.547 305.882 305.239C325.43 331.783 371.893 436.495 377.718 444.403L307.187 473.001Z" fill="#2F3676"/>
<path fill-rule="evenodd" clip-rule="evenodd" d="M161.288 445.365C171.96 429.808 210.775 377.469 231.916 355.813C237.991 349.589 243.919 343.616 249.526 338.05C266.191 321.506 299.373 349.31 282.739 364.379C241.314 401.908 180.872 452.571 175.822 457.088C168.744 463.419 154.582 455.142 161.288 445.365Z" fill="#915B3C"/>
<path fill-rule="evenodd" clip-rule="evenodd" d="M163.787 438.336C160.11 441.362 157.719 443.832 156.612 445.749C155.265 448.079 153.689 451.704 151.882 456.624C154.587 458.184 178.894 472.209 224.803 498.699C230.316 493.529 231.175 489.517 227.381 486.662C223.587 483.807 220.456 481.4 217.988 479.439L192.821 444.779C192.337 444.112 191.403 443.964 190.736 444.448C190.724 444.456 190.713 444.465 190.702 444.473L185.471 448.499C180.673 448.081 177.093 447.19 174.73 445.827C172.81 444.719 170.606 442.414 168.119 438.912L168.119 438.912C167.165 437.568 165.301 437.253 163.956 438.207C163.898 438.248 163.841 438.291 163.787 438.336Z" fill="#E4E4E4"/>
<path fill-rule="evenodd" clip-rule="evenodd" d="M354.843 478.077C353.173 482.533 352.338 485.868 352.338 488.08C352.338 490.771 352.786 494.697 353.683 499.859C356.806 499.859 384.875 499.859 437.888 499.859C440.077 492.629 438.813 488.726 434.099 488.149C429.384 487.573 425.468 487.052 422.35 486.588L383.212 469.15C382.459 468.814 381.576 469.152 381.24 469.905C381.235 469.918 381.229 469.931 381.224 469.944L378.708 476.043C374.344 478.078 370.797 479.096 368.068 479.096C365.851 479.096 362.79 478.201 358.883 476.411L358.883 476.411C357.384 475.724 355.612 476.382 354.925 477.88C354.895 477.945 354.868 478.011 354.843 478.077Z" fill="#E4E4E4"/>
<path fill-rule="evenodd" clip-rule="evenodd" d="M232.695 342.068C187.165 334.655 156.668 329.585 141.205 326.86C97.1279 319.093 84.2748 295.387 91.8742 243.666H173.085C183.832 246.768 228.736 265.951 307.799 301.216C322.024 308.274 319.375 329.083 316.775 335.938C316.669 336.218 292.688 377.286 244.833 459.143L178.4 416.846L232.82 347.052C234.257 344.159 234.216 342.498 232.695 342.068Z" fill="#5C63AB"/>
<path fill-rule="evenodd" clip-rule="evenodd" d="M238.546 224.133L286.169 259.084C299.085 262.567 309.876 266.901 318.542 272.085C320.589 273.95 323.063 277.725 314.574 277.073C306.084 276.42 297.125 276.115 295.954 279.009C294.782 281.903 299.92 285.364 297.552 289.269C295.973 291.872 288.515 285.345 275.178 269.687L228.019 250.142L238.546 224.133ZM55.6991 225.339L86.898 225.462C67.6341 287.614 57.2345 320.592 55.6991 324.395C52.2445 332.951 59.5549 345.983 62.6812 352.986C52.4992 357.539 53.5841 340.676 40.7397 346.648C29.016 352.099 20.0978 361.976 6.5527 353.623C4.88741 352.596 3.06253 348.73 7.47168 345.708C18.4565 338.18 34.2862 325.005 36.4251 320.668C39.3418 314.754 45.7665 282.978 55.6991 225.339Z" fill="#915B3C"/>
<path fill-rule="evenodd" clip-rule="evenodd" d="M144.361 94.4988L157.271 92.2858C205.17 133.64 224.844 213.088 283.556 255.174L269.425 272.681C167.569 260.077 142.324 163.17 144.361 94.4988Z" fill="url(#paint1_linear_113_28)"/>
<path fill-rule="evenodd" clip-rule="evenodd" d="M88.0844 256.644C139.848 256.644 177.924 256.644 202.313 256.644C207.532 256.644 206.549 249.111 205.794 245.31C197.086 201.441 163.092 154.153 163.092 91.7066L130.144 86.5428C102.891 130.349 93.4662 184.283 88.0844 256.644Z" fill="#DDE3E9"/>
<path fill-rule="evenodd" clip-rule="evenodd" d="M95.1987 236.497C98.0262 260.142 102.622 277.302 108.986 287.979H75.621C81.8346 273.498 88.3605 256.337 95.1987 236.497V236.497Z" fill="black" fill-opacity="0.1"/>
<path fill-rule="evenodd" clip-rule="evenodd" d="M89.0022 129.602C84.2168 128.227 80.4273 125.021 77.6336 119.983C65.5908 98.265 69.94 86.3076 82.81 82.3772C95.68 78.4468 107.157 86.5428 127.663 86.5428C128.778 86.5428 129.799 86.6127 130.727 86.7524L141.042 87.3407C170.636 187.582 178.798 254.461 165.527 287.979H75.6209C70.294 300.393 65.1966 310.838 60.3288 319.313H35.8309C33.5253 244.807 51.2491 181.57 89.0022 129.602Z" fill="url(#paint2_linear_113_28)"/>
<defs>
<linearGradient id="paint0_linear_113_28" x1="109.732" y1="305.884" x2="109.732" y2="490.907" gradientUnits="userSpaceOnUse">
<stop stop-color="#EE0979"/>
<stop offset="1" stop-color="#FF6A00"/>
</linearGradient>
<linearGradient id="paint1_linear_113_28" x1="220.7" y1="97.8319" x2="205.897" y2="267.126" gradientUnits="userSpaceOnUse">
<stop stop-color="#EE0979"/>
<stop offset="1" stop-color="#FF6A00"/>
</linearGradient>
<linearGradient id="paint2_linear_113_28" x1="103.661" y1="81.3006" x2="103.661" y2="319.313" gradientUnits="userSpaceOnUse">
<stop stop-color="#EE0979"/>
<stop offset="1" stop-color="#FF6A00"/>
</linearGradient>
</defs>
</svg>
